<?xml version="1.0" standalone="no"?>
<svg viewBox="0 0 200 200" xmlns="http://www.w3.org/2000/svg">
  <path fill="#FF0066" d="M39.5,-68.6C52.6,-60.7,65.8,-53.2,73.7,-41.8C81.6,-30.4,84.2,-15.2,82.8,-0.8C81.5,13.6,76.2,27.3,69.9,41.5C63.7,55.7,56.5,70.5,44.7,79.5C32.8,88.4,16.4,91.5,0.3,91C-15.9,90.5,-31.7,86.5,-45.9,78.9C-60.1,71.4,-72.7,60.3,-81.3,46.5C-90,32.8,-94.8,16.4,-94.3,0.3C-93.7,-15.7,-87.8,-31.5,-79.2,-45.4C-70.6,-59.2,-59.3,-71.2,-45.6,-78.7C-32,-86.3,-16,-89.5,-1.4,-87C13.1,-84.5,26.3,-76.4,39.5,-68.6Z" transform="translate(100 100)" />
</svg>
